<svg width="722" height="144" viewBox="0 0 722 144" fill="none" xmlns="http://www.w3.org/2000/svg">
<path d="M711.716 111.948C706.146 111.948 701.575 107.806 701.575 102.093C701.575 96.5223 706.146 92.3802 711.716 92.3802C717.286 92.3802 722 96.5223 722 102.093C722 107.806 717.286 111.948 711.716 111.948Z" fill="#1F2235"/>
<path d="M709.547 41.8231L665.412 143.232H647.987L661.699 111.81L628.134 41.8231H645.845L670.126 92.3847L692.121 41.8231L709.547 41.8231Z" fill="#1F2235"/>
<path d="M625.442 94.6566L627.728 108.797C620.158 111.082 616.73 111.653 610.874 111.653C594.734 111.653 584.736 100.941 584.736 83.5159V55.807H569.311V41.9525H584.736V17.2431H601.161V41.9525L626.157 41.9525V55.807H601.161V83.5159C601.161 92.5141 606.018 96.3705 614.016 96.3705C617.73 96.3705 621.872 95.6564 625.442 94.6566Z" fill="#1F2235"/>
<path d="M553.942 27.3788C548.229 27.3788 543.658 23.0939 543.658 17.5236C543.658 11.6676 548.229 7.38269 553.942 7.38269C559.655 7.38269 564.226 11.6676 564.226 17.5236C564.226 23.0939 559.655 27.3788 553.942 27.3788ZM562.226 41.9474V109.506H545.801V41.9474H562.226Z" fill="#1F2235"/>
<path d="M529.511 8.09134V109.5H512.942V8.09134L529.511 8.09134Z" fill="#1F2235"/>
<path d="M488.579 27.3788C482.865 27.3788 478.295 23.0939 478.295 17.5236C478.295 11.6676 482.865 7.38269 488.579 7.38269C494.292 7.38269 498.862 11.6676 498.862 17.5236C498.862 23.0939 494.292 27.3788 488.579 27.3788ZM496.863 41.9474V109.506H480.437V41.9474H496.863Z" fill="#1F2235"/>
<path d="M434.088 40.3708C452.941 40.3708 468.081 56.082 468.081 75.6496C468.081 95.3601 452.941 111.071 434.088 111.071C425.947 111.071 418.948 108.786 413.52 104.787V109.5H396.952V8.09134L413.52 8.09134V46.6553C418.948 42.656 425.947 40.3708 434.088 40.3708ZM431.66 96.7884C443.372 96.7884 451.656 86.9331 451.656 75.6496C451.656 64.5089 443.372 54.6537 431.66 54.6537C424.661 54.6537 418.234 57.2246 413.52 63.9376V87.3616C418.234 94.2174 424.661 96.7884 431.66 96.7884Z" fill="#1F2235"/>
<path d="M349.983 40.3855C370.408 40.3855 385.833 55.3826 385.833 75.8072C385.833 96.3746 370.408 111.657 349.983 111.657C329.416 111.657 313.99 96.3746 313.99 75.8072C313.99 55.3826 329.416 40.3855 349.983 40.3855ZM349.983 96.6603C361.552 96.6603 369.408 87.3764 369.408 75.8072C369.408 64.3809 361.552 55.3826 349.983 55.3826C338.271 55.3826 330.416 64.3809 330.416 75.8072C330.416 87.3764 338.271 96.6603 349.983 96.6603Z" fill="#1F2235"/>
<path d="M274.244 39.8085C290.812 39.8085 303.667 52.6631 303.667 72.2308V109.509H287.099V73.2306C287.099 61.3757 281.243 54.8056 270.816 54.8056C265.674 54.8056 259.961 57.2337 255.248 64.0895C255.819 66.6604 256.105 69.3742 256.105 72.2308V109.509H239.679V73.2306C239.679 61.3757 233.681 54.8056 223.397 54.8056C218.541 54.8056 213.256 57.5193 208.685 63.8038V109.509H192.117V41.9509H208.685V46.6643C213.256 42.3794 218.255 39.8085 226.825 39.8085C235.68 39.8085 243.536 43.5221 248.82 50.0922C255.962 43.2364 263.103 39.8085 274.244 39.8085Z" fill="#1F2235"/>
<path d="M181.627 74.6646C181.627 77.0927 181.627 79.6636 181.198 82.2345H181.056L129.351 82.2345C131.351 90.6615 137.636 97.0888 149.062 97.0888C155.632 97.0888 160.345 94.9464 162.773 90.8043L180.341 90.8043C176.485 103.23 164.059 111.086 148.633 111.086C127.066 111.086 112.783 95.8033 112.783 75.8072C112.783 55.6683 127.066 40.3855 148.633 40.3855C167.344 40.3855 181.484 54.3828 181.627 74.6646ZM147.776 54.3828C137.207 54.3828 131.065 61.2386 129.209 69.9512H164.916C163.63 60.3817 157.632 54.3828 147.776 54.3828Z" fill="#1F2235"/>
<path fill-rule="evenodd" clip-rule="evenodd" d="M23.6217 71.2205C16.0697 80.5548 17.5147 94.2438 26.849 101.796C36.1833 109.348 49.8724 107.903 57.4243 98.5684C58.6528 97.05 60.8797 96.8149 62.3981 98.0434C63.9166 99.2719 64.1517 101.499 62.9231 103.017C52.9142 115.389 34.7714 117.304 22.4002 107.295C10.0289 97.2857 8.11386 79.1429 18.1228 66.7716C19.3513 65.2532 21.5782 65.0181 23.0967 66.2466C24.6151 67.4751 24.8502 69.702 23.6217 71.2205Z" fill="#4690FF"/>
<path fill-rule="evenodd" clip-rule="evenodd" d="M70.6502 24.3903C67.4468 23.3552 63.7111 23.7905 61.3906 24.5893L61.1393 24.6758L41.7367 30.0268L48.5258 54.6438L67.9284 49.2927L68.1885 49.2382C70.5904 48.7345 74.0211 47.1934 76.2411 44.6625C78.0427 42.6086 79.6225 39.3341 77.9537 33.2831C76.2849 27.2321 73.25 25.2303 70.6502 24.3903ZM75.8845 8.19101C84.0553 10.8312 91.2059 17.3027 94.3649 28.757C97.5239 40.2114 94.7015 49.4334 89.0391 55.8886C87.2381 57.9418 85.2188 59.6413 83.1404 61.0307L114.102 102.515L100.46 112.697L66.5922 67.3207L36.6407 75.5811L20.7994 18.1417L56.1248 8.39923C60.9826 6.78453 68.4589 5.79169 75.8845 8.19101Z" fill="#1F2235"/>
</svg>
